<?xml version="1.0" encoding="utf-8"?>
<!-- Generator: Adobe Illustrator 23.0.0, SVG Export Plug-In . SVG Version: 6.00 Build 0)  -->
<svg version="1.1" id="Layer_1" xmlns="http://www.w3.org/2000/svg" xmlns:xlink="http://www.w3.org/1999/xlink" x="0px" y="0px"
	 viewBox="0 0 256 256" style="enable-background:new 0 0 256 256;" xml:space="preserve">
<style type="text/css">
	.st0{fill:#FFFFFF;}
</style>
<g>
	<path class="st0" d="M257,118c0,7.3,0,14.7,0,22c-0.3,1.3-0.8,2.5-0.9,3.8c-6.1,51.6-42.5,94.3-92.7,108.3
		c-7.6,2.1-15.6,3.3-23.4,4.9c-7.3,0-14.7,0-22,0c-1.1-0.3-2.2-0.7-3.3-0.9c-53.7-6.3-97.1-44.5-110-97.1C3.1,152.8,2.2,146.4,1,140
		c0-7.3,0-14.7,0-22c0.3-1.3,0.8-2.5,0.9-3.8C8.1,61.4,46.5,17.6,98,4.9c6.6-1.6,13.3-2.6,20-3.9c7.3,0,14.7,0,22,0
		c1.1,0.3,2.2,0.7,3.3,0.9c53.2,7.8,89,37.1,107.2,87.5C253.8,98.5,254.9,108.4,257,118z M129.3,11.7
		c-64.6-0.3-117.2,52-117.6,116.9C11.4,193.3,63.8,246,128.7,246.2c64.7,0.3,117.3-52,117.6-116.9C246.5,64.6,194.2,12.1,129.3,11.7
		z"/>
	<path class="st0" d="M150.3,150.6c0,11.7,0,23.3,0,35c0,6.4-1.3,7.6-7.6,7.6c-9.3,0-18.6,0.1-28,0c-5.3,0-6.8-1.6-6.8-6.9
		c0-23.8,0-47.6,0-71.4c0-5.3,1.6-6.8,6.9-6.9c9.7-0.1,19.3,0,29,0c4.6,0,6.7,2.1,6.6,6.7C150.3,126.6,150.3,138.6,150.3,150.6z
		 M139.5,182.2c0-21.2,0-42.1,0-63.7c-5.7,0-11.1,0.2-16.6-0.1c-3.8-0.2-4.8,1.2-4.8,4.8c0.2,18.3,0.1,36.6,0.1,54.9
		c0,1.3,0.2,2.5,0.4,4C125.8,182.2,132.5,182.2,139.5,182.2z"/>
	<path class="st0" d="M107.8,76.1c0-11.9,9.4-21.2,21.2-21.2c12.1,0,21.5,9.5,21.3,21.6c-0.2,11.8-9.8,21.2-21.5,21
		C117,97.4,107.7,88,107.8,76.1z M129.2,65.5c-5.9-0.1-10.9,4.8-10.8,10.7c0,5.9,5,10.8,10.9,10.7c5.7-0.1,10.5-4.8,10.6-10.5
		C140,70.6,135.1,65.6,129.2,65.5z"/>
</g>
</svg>
