<?xml version="1.0" encoding="utf-8"?>
<!-- Generator: Adobe Illustrator 23.0.0, SVG Export Plug-In . SVG Version: 6.00 Build 0)  -->
<svg version="1.1" id="Layer_1" xmlns="http://www.w3.org/2000/svg" xmlns:xlink="http://www.w3.org/1999/xlink" x="0px" y="0px"
	 viewBox="0 0 391.3 401.8" style="enable-background:new 0 0 391.3 401.8;" xml:space="preserve">
<style type="text/css">
	.st0{fill:#575757;}
	.st1{fill:#6D6D6D;}
	.st2{fill:#7F7F7F;}
	.st3{fill:#A2A2A2;}
	.st4{fill:#FEFEFE;stroke:#000000;stroke-width:30;stroke-miterlimit:10;}
</style>
<g>
	<path class="st0" d="M193.2,401.5c2.5,0,5.1,0,7.6,0c0.1,0.1,0.2,0.2,0.1,0.2c0,0.1-0.1,0.1-0.1,0.1c-2.5,0-5.1,0-7.6,0
		c-0.1-0.1-0.2-0.1-0.1-0.2C193.1,401.5,193.2,401.5,193.2,401.5z"/>
	<path class="st1" d="M193.2,401.5c0,0.1,0,0.2,0,0.3c-0.8,0-1.7,0-2.5,0C191.4,401,192.4,401.5,193.2,401.5z"/>
	<path class="st2" d="M200.8,401.8c0-0.1,0-0.2,0-0.4c0.7,0,1.4,0,2.1,0c0.1,0.1,0.2,0.2,0.1,0.2c0,0.1-0.1,0.1-0.1,0.1
		C202.2,401.8,201.5,401.8,200.8,401.8z"/>
	<path class="st3" d="M202.9,401.8c0-0.1,0-0.2,0-0.3c0.7,0.1,1.5-0.5,2.1,0.3C204.3,401.8,203.6,401.8,202.9,401.8z"/>
	<path class="st4" d="M320.8,325.2c-9-30.3-27.6-53.5-52.9-71.6c-19.3-13.8-41.2-21.4-64.7-22.2c-66.6-2.1-110.4,30.5-135.4,90.7
		c-38-35.2-65-102.1-47.1-171.5C39.4,78,102.1,21.1,181.7,15.5C274.1,9,339.5,66,364.4,131.6C392.5,205.5,367.7,281,320.8,325.2z"/>
	<path d="M193.7,208.6c-30.6,2.7-67.4-22.4-74.8-60.9c-6.3-32.9,7.4-64.7,36.4-81.7c35.2-20.7,79.8-10.6,102.9,23.5
		c9.7,14.4,13.9,30.6,12.7,48.1c-2.4,34.5-27.3,63.1-61.1,70.2C204.6,208.9,199.3,208.4,193.7,208.6z"/>
</g>
</svg>
