<?xml version="1.0" encoding="utf-8"?>
<!-- Generator: Adobe Illustrator 23.0.0, SVG Export Plug-In . SVG Version: 6.00 Build 0)  -->
<svg version="1.1" id="Layer_1" xmlns="http://www.w3.org/2000/svg" xmlns:xlink="http://www.w3.org/1999/xlink" x="0px" y="0px"
	 viewBox="0 0 452.09 452.09" style="enable-background:new 0 0 452.09 452.09;" xml:space="preserve">
<style type="text/css">
	.st0{fill:#575757;}
	.st1{fill:#313131;}
	.st2{fill:#202020;}
	.st3{fill:#0F0F0F;}
	.st4{fill:#6D6D6D;}
	.st5{fill:#7F7F7F;}
	.st6{fill:#A2A2A2;}
	.st7{fill:#757575;}
	.st8{fill:#929292;}
	.st9{fill:#FEFEFE;}
</style>
<g>
	<path d="M220.75,452.05c-1.84,0-3.69,0-5.53,0c-4.01-0.61-8.07-0.35-12.1-0.71c-11.27-1.01-22.38-2.94-33.31-5.78
		c-16.93-4.4-33.19-10.57-48.71-18.69c-14.48-7.58-27.97-16.64-40.41-27.22c-16.7-14.21-31.27-30.35-43.38-48.65
		c-13.76-20.79-23.96-43.2-30.18-67.37c-3.39-13.18-5.85-26.56-6.52-40.16c-0.63-12.87-0.86-25.79,0.34-38.63
		c2.4-25.67,9.09-50.23,19.92-73.67c8.33-18.03,18.84-34.66,31.58-49.85c15.45-18.43,33.36-34.09,53.79-46.84
		c15.44-9.64,31.76-17.45,49.06-23.1c15.59-5.09,31.58-8.38,47.9-10.15c12.48-1.36,24.95-0.84,37.44-0.44
		c19.58,0.63,38.54,4.59,57.05,10.73c26.44,8.78,50.35,22.2,71.9,39.88c5.77,4.73,11.33,9.69,16.56,14.96
		c14.1,14.23,26.39,29.9,36.37,47.34c10.61,18.52,18.44,38.12,23.51,58.83c2.63,10.75,4.51,21.64,5.51,32.66
		c0.26,2.88,0.09,5.79,0.52,8.66c0,1.69,0,3.38,0,5.07c-0.49,1.3-0.12,2.66-0.24,3.98c0.11,0.82-0.25,1.69,0.24,2.47
		c0,0.31,0,0.61,0,0.92c-0.5,0.91-0.12,1.9-0.24,2.84c0.13,1.2-0.28,2.43,0.24,3.61c0,0.61,0,1.23,0,1.84
		c-0.44,0.51-0.15,1.12-0.24,1.68c0.03,0.37-0.1,0.78,0.24,1.09c0,0.77,0,1.54,0,2.3c-0.58,3.4-0.35,6.84-0.7,10.26
		c-1.43,13.95-4.32,27.58-8.3,41.01c-3.81,12.85-8.76,25.25-14.8,37.18c-8.99,17.74-19.99,34.15-33.27,49.02
		c-17.1,19.13-36.87,34.92-59.3,47.32c-24.44,13.51-50.52,22.23-78.23,25.99c-6.24,0.85-12.5,1.32-18.79,1.39
		c-0.45,0.01-0.93-0.13-1.31,0.23c-0.31,0-0.61,0-0.92,0c-0.8-0.49-1.68-0.12-2.52-0.24c-0.78,0-1.55,0-2.33,0
		c-2.58,0-5.15,0-7.72,0C222.81,451.93,221.75,451.57,220.75,452.05z"/>
	<path class="st0" d="M223.49,451.68c2.78-0.01,5.56-0.02,8.34-0.03c0.13,0.1,0.17,0.19,0.12,0.27c-0.05,0.08-0.1,0.12-0.15,0.12
		c-2.76,0-5.53,0-8.29,0c-0.14-0.07-0.19-0.15-0.15-0.24C223.4,451.73,223.45,451.68,223.49,451.68z"/>
	<path class="st1" d="M451.61,223.03c0.23-1.36-0.57-2.83,0.44-4.11c0,1.38,0,2.76,0,4.15
		C451.88,223.27,451.74,223.26,451.61,223.03z"/>
	<path class="st2" d="M452.04,232.74c-0.95-1.13-0.24-2.45-0.44-3.67c0.14-0.23,0.29-0.22,0.44-0.01
		C452.04,230.28,452.04,231.51,452.04,232.74z"/>
	<path class="st3" d="M452.04,229.05c-0.15,0-0.3,0.01-0.44,0.01c0.12-0.93-0.38-1.96,0.44-2.78
		C452.04,227.21,452.04,228.13,452.04,229.05z"/>
	<path class="st4" d="M223.49,451.68c0.01,0.12,0.01,0.25,0.02,0.37c-0.92,0-1.84,0-2.76,0
		C221.56,451.13,222.57,451.74,223.49,451.68z"/>
	<path class="st3" d="M451.61,223.03c0.14,0.02,0.29,0.03,0.44,0.03c0,0.77,0,1.54,0,2.3C451.28,224.7,451.67,223.82,451.61,223.03z
		"/>
	<path class="st5" d="M231.81,452.05c0-0.13,0.01-0.27,0.03-0.4c0.77,0,1.53,0.01,2.3,0.01c0.13,0.09,0.18,0.18,0.12,0.26
		c-0.05,0.08-0.1,0.12-0.15,0.12C233.34,452.05,232.57,452.05,231.81,452.05z"/>
	<path class="st6" d="M234.11,452.05c0-0.13,0.01-0.26,0.02-0.38c0.76,0.11,1.66-0.54,2.28,0.38
		C235.65,452.05,234.88,452.05,234.11,452.05z"/>
	<path class="st7" d="M451.65,236.44c-0.02-0.65-0.34-1.37,0.4-1.86c0,0.61,0,1.23,0,1.84
		C451.92,236.62,451.79,236.63,451.65,236.44z"/>
	<path class="st8" d="M451.65,236.44c0.13-0.01,0.26-0.01,0.4-0.02c0,0.31,0,0.61,0,0.92C451.47,237.24,451.6,236.82,451.65,236.44z
		"/>
	<path class="st9" d="M363.08,368.27c-9.9-33.1-30.15-58.55-57.87-78.29c-21.14-15.06-45.09-23.42-70.81-24.24
		c-72.83-2.31-120.75,33.39-148.18,99.23C44.67,326.5,15.09,253.3,34.72,177.28c20.53-79.52,89.12-141.84,176.2-147.92
		c101.07-7.06,172.66,55.3,199.94,127.07C441.58,237.24,414.43,319.82,363.08,368.27z"/>
	<path d="M224.06,240.67c-33.48,2.93-73.78-24.53-81.86-66.68c-6.91-36.02,8.15-70.77,39.78-89.35
		c38.55-22.66,87.34-11.65,112.61,25.75c10.64,15.75,15.18,33.47,13.86,52.61c-2.6,37.71-29.83,69.04-66.9,76.81
		C235.93,240.99,230.22,240.47,224.06,240.67z"/>
</g>
</svg>
